<svg xmlns="http://www.w3.org/2000/svg" version="1.1" xmlns:xlink="http://www.w3.org/1999/xlink" width="72px" height="72px"><svg fill="#D9660E" version="1.1" id="SvgjsSvg1007" xmlns="http://www.w3.org/2000/svg" xmlns:xlink="http://www.w3.org/1999/xlink" width="72px" height="72px" viewBox="-26 -26 312.00 312.00" enable-background="new 0 0 260 240" xml:space="preserve">

<g id="SvgjsG1006" stroke-width="0">

<path transform="translate(-26, -26), scale(9.75)" d="M16,27.082749149296433C18.346672173614337,28.127274926911838,20.338243862093652,30.593218488910676,22.891187365054062,30.3096980113237C25.243533173031786,30.048455172947456,26.981270664376005,27.75780061566152,28.198554652335286,25.728022718065038C29.373993409321773,23.768020259715716,29.132244994015956,21.34134635098895,29.609959084335784,19.106384347716585C30.081347596886356,16.90101625061008,31.958022186948256,14.620347713740966,31.01016802289878,12.574027099273655C29.99803339661067,10.388931512900912,26.913685147200532,10.214205806358406,24.887966502640307,8.912083232866149C23.467230896143427,7.998840957512841,22.012587673334156,7.199935811505745,20.807986921201636,6.016112283684853C18.986975707322564,4.226510280199996,18.49651355647879,0.7123737298602018,16.000000000000004,0.1774183725938201C13.724653316813972,-0.31014513157776424,12.05654691390832,2.4815440235324817,10.085539274834787,3.718495755007691C8.307579622333993,4.8342957281055465,5.6886178388007504,5.201482594838333,4.896797586539805,7.145491543890607C4.047637982910151,9.230275134504947,6.1087764475769255,11.471242394270401,6.011699885739736,13.720235678669704C5.936233468072654,15.468582172600836,4.733732832693883,16.92963309410227,4.4003174610661056,18.647551844509024C3.9351935261472284,21.044097406158045,1.8676503553483936,24.18311103843217,3.6592008860395975,25.841458890926965C5.617227878243769,27.653905596739868,8.886910100359533,24.990880194324824,11.541628825906226,25.257903136867043C13.159643251591449,25.4206499351868,14.514345967797153,26.421470615932286,16,27.082749149296433" fill="#160a01" strokewidth="0"></path>

</g>

<g id="SvgjsG1005" stroke-linecap="round" stroke-linejoin="round" stroke="#CCCCCC" stroke-width="1.04"></g>

<g id="SvgjsG1004"> <path d="M257.229,117.41l-4.888-11.82L239.54,90.716l-5.631-17.505l-13.546-8.606l-5.605-31.236l-8.844-3.081l-7.49-28.262 l-8.234,12.616l-7.437,35.434l-5.844,1.567l-31.05-20.904l3.107-11.794l7.65-7.012L134.037,7.02l-22.949,5.631l-10.97,18.141 l-16.362-7.039L66.6,33.976l-1.263,10.743l-9.338,2.914l-9.084,21.462L2.663,91.034L2,110.478l6.959,9.376l-3.533,5.525 l16.379,33.043l-1.195,19.124l12.36,4.223l18.859-10.518l21.01-1.966l3.054-6.135l12.06-7.224l30.227-6.694l16.229,5.313 l8.181,11.846l19.31,6.136l6.853,18.3l21.063,13.494l8.818-6.269l10.305,6.428l18.621-6.162l15.405-31.714l4.675-2.365L258,139.987 L257.229,117.41z M199.777,237.973l11.98-1.939l3.48-13.52l-18.912-3.931L199.777,237.973z"></path> </g>

</svg><style>@media (prefers-color-scheme: light) { :root { filter: none; } }
@media (prefers-color-scheme: dark) { :root { filter: none; } }
</style></svg>